<svg xmlns="http://www.w3.org/2000/svg" viewBox="0 0 128 128">
  <defs>
    <linearGradient id="bg-gradient" x1="0%" y1="0%" x2="100%" y2="100%">
      <stop offset="0%" style="stop-color:#0ea5e9" />
      <stop offset="50%" style="stop-color:#6366f1" />
      <stop offset="100%" style="stop-color:#8b5cf6" />
    </linearGradient>
    
    <linearGradient id="f-gradient" x1="0%" y1="0%" x2="0%" y2="100%">
      <stop offset="0%" style="stop-color:#ffffff" />
      <stop offset="100%" style="stop-color:#f1f5f9" />
    </linearGradient>
    
    <filter id="elegant-shadow">
      <feGaussianBlur in="SourceAlpha" stdDeviation="1.5"/>
      <feOffset dx="-1" dy="1.5" result="offsetblur"/>
      <feComponentTransfer>
        <feFuncA type="linear" slope="0.15"/>
      </feComponentTransfer>
      <feMerge>
        <feMergeNode/>
        <feMergeNode in="SourceGraphic"/>
      </feMerge>
    </filter>
  </defs>
  
  <rect width="128" height="128" rx="32" fill="url(#bg-gradient)"/>
  
  <g transform="translate(64, 64) rotate(-3) translate(-64, -64) translate(40, 24)" filter="url(#elegant-shadow)">
    <path d="
      M 4,0
      C 4,0 0,0 0,4
      L 0,76
      C 0,80 0,80 4,80
      L 4,80
      C 8,80 8,80 8,76
      L 8,44
      C 14,44.5 20,45.5 26,45.2
      C 30,45.7 32,44.5 32,44
      L 32,36
      C 32,35.5 30,34.3 26,34.8
      C 20,35.5 14,34.5 8,36
      L 8,18
      C 16,19.5 24,18.5 32,19.5
      C 38,20.2 44,18.5 44,18
      L 44,10
      C 44,9.5 38,7.8 32,8.5
      C 24,9.5 16,8.5 8,10
      L 8,4
      C 8,0 8,0 4,0
      Z
    " 
    fill="url(#f-gradient)"/>
  </g>
</svg>